<?xml version="1.0" encoding="UTF-8"?>
<svg width="511px" height="142px" viewBox="0 0 511 142" version="1.1" xmlns="http://www.w3.org/2000/svg" xmlns:xlink="http://www.w3.org/1999/xlink" xmlns:sketch="http://www.bohemiancoding.com/sketch/ns">
    <!-- Generator: Sketch 3.5.1 (25234) - http://www.bohemiancoding.com/sketch -->
    <title>Ethpay</title>
    <desc>Created with Sketch.</desc>
    <defs>
        <linearGradient x1="84.2916757%" y1="32.0176035%" x2="0%" y2="32.0176035%" id="linearGradient-1">
            <stop stop-color="#FBDA61" offset="0%"></stop>
            <stop stop-color="#1C86F7" offset="100%"></stop>
        </linearGradient>
    </defs>
    <g id="Welcome" stroke="none" stroke-width="1" fill="none" fill-rule="evenodd" sketch:type="MSPage">
        <g id="Ethpay" sketch:type="MSArtboardGroup" transform="translate(-462.000000, -105.000000)" fill="url(#linearGradient-1)">
            <path d="M504.2,112.1 L579.8,112.1 L569.44,137.58 L524.08,137.58 L518.48,150.6 L555.02,150.6 L545.08,175.24 L508.82,175.24 L503.36,188.26 L548.72,188.26 L537.94,215 L462.34,215 L504.2,112.1 Z M633.28,135.34 L623.62,159.14 L598.7,159.14 L576.02,215 L545.92,215 L587.92,112.1 C588.66667,110.233324 590.043323,108.600007 592.05,107.2 C594.056677,105.799993 596.133323,105.1 598.28,105.1 L620.82,105.1 L608.36,135.34 L633.28,135.34 Z M680.88,122.18 C686.946697,122.18 691.963314,122.739994 695.93,123.86 C699.896686,124.980006 703.046655,126.496657 705.38,128.41 C707.713345,130.323343 709.299996,132.539987 710.14,135.06 C710.980004,137.580013 711.260001,140.286652 710.98,143.18 C710.98,145.700013 710.560004,148.219987 709.72,150.74 L684.52,215 L654.7,215 L677.66,153.26 C678.40667,151.579992 678.453337,150.156672 677.8,148.99 C677.146663,147.823328 676.026675,147.24 674.44,147.24 C672.853325,147.24 671.243342,147.823328 669.61,148.99 C667.976658,150.156672 666.78667,151.579992 666.04,153.26 L640.98,215 L610.32,215 L652.18,112.1 C653.020004,109.953323 654.373324,108.250006 656.24,106.99 C658.106676,105.729994 660.113323,105.1 662.26,105.1 L684.94,105.1 L677.94,122.18 L680.88,122.18 Z M763.76,123.86 C770.013365,123.86 775.356645,124.793324 779.79,126.66 C784.223356,128.526676 787.559989,131.279982 789.8,134.92 C792.040011,138.560018 793.113334,143.01664 793.02,148.29 C792.926666,153.56336 791.573346,159.559966 788.96,166.28 C787.746661,169.546683 786.860003,171.903326 786.3,173.35 C785.739997,174.796674 785.273335,176.009995 784.9,176.99 C784.526665,177.970005 784.106669,179.066661 783.64,180.28 C783.173331,181.493339 782.380006,183.45332 781.26,186.16 C778.55332,192.506698 775.91668,197.569981 773.35,201.35 C770.78332,205.130019 767.983349,208.046656 764.95,210.1 C761.916652,212.153344 758.533352,213.48333 754.8,214.09 C751.066648,214.69667 746.680025,215 741.64,215 L722.32,215 L709.16,246.92 L679.2,246.92 L729.04,123.86 L760.96,123.86 L763.76,123.86 Z M759.7,155.36 C760.44667,153.679992 760.470004,152.256673 759.77,151.09 C759.069997,149.923327 757.880008,149.34 756.2,149.34 C753.866655,149.34 752.186672,149.783329 751.16,150.67 C750.133328,151.556671 749.153338,153.166655 748.22,155.5 L737.3,183.92 C735.899993,187.466684 735.479997,189.753328 736.04,190.78 C736.600003,191.806672 737.766658,192.32 739.54,192.32 C741.593344,192.32 743.29666,191.900004 744.65,191.06 C746.00334,190.219996 747.146662,188.633345 748.08,186.3 L759.7,155.36 Z M849.86,215 L811.22,215 C807.206647,215 803.380018,214.416673 799.74,213.25 C796.099982,212.083327 793.183344,210.100014 790.99,207.3 C788.796656,204.499986 787.560001,200.76669 787.28,196.1 C786.999999,191.43331 788.259986,185.646701 791.06,178.74 C791.526669,177.339993 792.226662,175.426679 793.16,173 C793.90667,171.03999 794.886661,168.473349 796.1,165.3 C797.313339,162.126651 798.853324,158.300022 800.72,153.82 C804.266684,144.766621 809.493299,137.510027 816.4,132.05 C823.306701,126.589973 831.706617,123.86 841.6,123.86 L842.58,123.86 C847.806693,123.86 852.473313,124.979989 856.58,127.22 C857.513338,126.193328 858.609994,125.37667 859.87,124.77 C861.130006,124.16333 862.646658,123.86 864.42,123.86 L886.82,123.86 L849.86,215 Z M821.16,183.92 C819.666659,187.466684 819.22333,189.753328 819.83,190.78 C820.43667,191.806672 821.626658,192.32 823.4,192.32 C826.386682,192.32 828.673325,191.293344 830.26,189.24 L839.08,167.54 L843.7,155.36 C844.44667,153.679992 844.470004,152.256673 843.77,151.09 C843.069997,149.923327 841.880008,149.34 840.2,149.34 C837.866655,149.34 836.210005,149.783329 835.23,150.67 C834.249995,151.556671 833.246672,153.166655 832.22,155.5 L821.16,183.92 Z M972.78,123.86 L936.8,215 C934.653323,219.946691 932.320013,224.193316 929.8,227.74 C927.279987,231.286684 924.66668,234.249988 921.96,236.63 C919.25332,239.010012 916.54668,240.899993 913.84,242.3 C911.13332,243.700007 908.520013,244.726663 906,245.38 C900.119971,247.060008 894.053365,247.246673 887.8,245.94 L905.72,216.54 L894.1,216.54 C890.086647,216.54 886.260018,215.956672 882.62,214.79 C878.979982,213.623328 876.040011,211.640014 873.8,208.84 C871.559989,206.039986 870.300001,202.330023 870.02,197.71 C869.739999,193.089977 870.999986,187.326701 873.8,180.42 L895.5,123.86 L927.7,123.86 L903.9,185.6 C902.406659,189.146684 901.96333,191.433328 902.57,192.46 C903.17667,193.486672 904.366658,194 906.14,194 C908.193344,194 909.873327,193.556671 911.18,192.67 C912.486673,191.783329 913.606662,190.173345 914.54,187.84 L939.32,123.86 L972.78,123.86 Z" id="Ethpay" sketch:type="MSShapeGroup"></path>
        </g>
    </g>
</svg>
