<?xml version="1.0" encoding="UTF-8"?>
<svg width="479px" height="147px" viewBox="0 0 479 147" version="1.1" xmlns="http://www.w3.org/2000/svg" xmlns:xlink="http://www.w3.org/1999/xlink" xmlns:sketch="http://www.bohemiancoding.com/sketch/ns">
    <!-- Generator: Sketch 3.5.1 (25234) - http://www.bohemiancoding.com/sketch -->
    <title>Bitpay</title>
    <desc>Created with Sketch.</desc>
    <defs>
        <linearGradient x1="84.2916757%" y1="32.0176035%" x2="0%" y2="32.0176035%" id="linearGradient-1">
            <stop stop-color="#FBDA61" offset="0%"></stop>
            <stop stop-color="#1C86F7" offset="100%"></stop>
        </linearGradient>
    </defs>
    <g id="Welcome" stroke="none" stroke-width="1" fill="none" fill-rule="evenodd" sketch:type="MSPage">
        <g id="Bitpay" sketch:type="MSArtboardGroup" transform="translate(-478.000000, -108.000000)" fill="url(#linearGradient-1)">
            <path d="M568.872,116.304 C572.80802,116.496001 576.311985,117.287993 579.384,118.68 C582.456015,120.072007 584.903991,121.991988 586.728,124.44 C588.552009,126.888012 589.583999,129.839983 589.824,133.296 C590.064001,136.752017 589.320009,140.639978 587.592,144.96 C585.767991,149.568023 583.728011,153.479984 581.472,156.696 C579.215989,159.912016 577.032011,162.52799 574.92,164.544 C572.423988,166.944012 569.976012,168.911992 567.576,170.448 C568.920007,171.888007 569.927997,173.711989 570.6,175.92 C571.176003,177.84001 571.44,180.239986 571.392,183.12 C571.344,186.000014 570.648007,189.551979 569.304,193.776 C567.479991,199.056026 565.176014,203.495982 562.392,207.096 C559.607986,210.696018 556.488017,213.599989 553.032,215.808 C549.575983,218.016011 545.85602,219.599995 541.872,220.56 C537.88798,221.520005 533.88002,222 529.848,222 L478.584,222 L520.92,116.16 L568.872,116.16 L568.872,116.304 Z M537.048,155.904 L542.808,155.904 C544.440008,155.904 546.119991,155.304006 547.848,154.104 C549.576009,152.903994 550.775997,151.440009 551.448,149.712 L552.456,146.976 C553.224004,145.247991 553.248004,143.760006 552.528,142.512 C551.807996,141.263994 550.584009,140.64 548.856,140.64 L543.24,140.64 L537.048,155.904 Z M525.096,200.4 C526.728008,200.4 528.383992,199.800006 530.064,198.6 C531.744008,197.399994 532.967996,195.888009 533.736,194.064 L537.336,184.704 C538.104004,182.975991 538.128004,181.512006 537.408,180.312 C536.687996,179.111994 535.464009,178.512 533.736,178.512 L528.12,178.512 L519.192,200.4 L525.096,200.4 Z M602.424,128.256 L633.24,128.256 L595.08,222 L564.264,222 L602.424,128.256 Z M641.016,108.96 L636.12,121.056 L605.304,121.056 L607.176,116.16 C608.136005,113.951989 609.57599,112.200006 611.496,110.904 C613.41601,109.607994 615.479989,108.96 617.688,108.96 L641.016,108.96 Z M692.568,140.064 L682.632,164.544 L657,164.544 L633.672,222 L602.712,222 L645.912,116.16 C646.680004,114.23999 648.09599,112.560007 650.16,111.12 C652.22401,109.679993 654.359989,108.96 656.568,108.96 L679.752,108.96 L666.936,140.064 L692.568,140.064 Z M741.672,128.256 C748.104032,128.256 753.599977,129.21599 758.16,131.136 C762.720023,133.05601 766.151988,135.887981 768.456,139.632 C770.760012,143.376019 771.864,147.959973 771.768,153.384 C771.672,158.808027 770.280013,164.975965 767.592,171.888 C766.343994,175.248017 765.432003,177.671993 764.856,179.16 C764.279997,180.648007 763.800002,181.895995 763.416,182.904 C763.031998,183.912005 762.600002,185.039994 762.12,186.288 C761.639998,187.536006 760.824006,189.551986 759.672,192.336 C756.887986,198.864033 754.176013,204.071981 751.536,207.96 C748.895987,211.848019 746.016016,214.847989 742.896,216.96 C739.775984,219.072011 736.296019,220.439997 732.456,221.064 C728.615981,221.688003 724.104026,222 718.92,222 L699.048,222 L685.512,254.832 L654.696,254.832 L705.96,128.256 L738.792,128.256 L741.672,128.256 Z M737.496,160.656 C738.264004,158.927991 738.288004,157.464006 737.568,156.264 C736.847996,155.063994 735.624009,154.464 733.896,154.464 C731.495988,154.464 729.768005,154.919995 728.712,155.832 C727.655995,156.744005 726.648005,158.399988 725.688,160.8 L714.456,190.032 C713.015993,193.680018 712.583997,196.031995 713.16,197.088 C713.736003,198.144005 714.935991,198.672 716.76,198.672 C718.872011,198.672 720.623993,198.240004 722.016,197.376 C723.408007,196.511996 724.583995,194.880012 725.544,192.48 L737.496,160.656 Z M830.232,222 L790.488,222 C786.359979,222 782.424019,221.400006 778.68,220.2 C774.935981,218.999994 771.936011,216.960014 769.68,214.08 C767.423989,211.199986 766.152001,207.360024 765.864,202.56 C765.575999,197.759976 766.871986,191.808036 769.752,184.704 C770.232002,183.263993 770.951995,181.296012 771.912,178.8 C772.680004,176.78399 773.687994,174.144016 774.936,170.88 C776.184006,167.615984 777.76799,163.680023 779.688,159.072 C783.336018,149.759953 788.711964,142.296028 795.816,136.68 C802.920036,131.063972 811.559949,128.256 821.736,128.256 L822.744,128.256 C828.120027,128.256 832.919979,129.407988 837.144,131.712 C838.104005,130.655995 839.231994,129.816003 840.528,129.192 C841.824006,128.567997 843.383991,128.256 845.208,128.256 L868.248,128.256 L830.232,222 Z M800.712,190.032 C799.175992,193.680018 798.719997,196.031995 799.344,197.088 C799.968003,198.144005 801.191991,198.672 803.016,198.672 C806.088015,198.672 808.439992,197.616011 810.072,195.504 L819.144,173.184 L823.896,160.656 C824.664004,158.927991 824.688004,157.464006 823.968,156.264 C823.247996,155.063994 822.024009,154.464 820.296,154.464 C817.895988,154.464 816.192005,154.919995 815.184,155.832 C814.175995,156.744005 813.144005,158.399988 812.088,160.8 L800.712,190.032 Z M956.664,128.256 L919.656,222 C917.447989,227.088025 915.048013,231.455982 912.456,235.104 C909.863987,238.752018 907.176014,241.799988 904.392,244.248 C901.607986,246.696012 898.824014,248.639993 896.04,250.08 C893.255986,251.520007 890.568013,252.575997 887.976,253.248 C881.92797,254.976009 875.688032,255.168007 869.256,253.824 L887.688,223.584 L875.736,223.584 C871.607979,223.584 867.672019,222.984006 863.928,221.784 C860.183981,220.583994 857.160012,218.544014 854.856,215.664 C852.551988,212.783986 851.256001,208.968024 850.968,204.216 C850.679999,199.463976 851.975986,193.536036 854.856,186.432 L877.176,128.256 L910.296,128.256 L885.816,191.76 C884.279992,195.408018 883.823997,197.759995 884.448,198.816 C885.072003,199.872005 886.295991,200.4 888.12,200.4 C890.232011,200.4 891.959993,199.944005 893.304,199.032 C894.648007,198.119995 895.799995,196.464012 896.76,194.064 L922.248,128.256 L956.664,128.256 Z" sketch:type="MSShapeGroup"></path>
        </g>
    </g>
</svg>