<?xml version="1.0" encoding="UTF-8"?>
<svg width="510px" height="142px" viewBox="0 0 510 142" version="1.1" xmlns="http://www.w3.org/2000/svg" xmlns:xlink="http://www.w3.org/1999/xlink" xmlns:sketch="http://www.bohemiancoding.com/sketch/ns">
    <!-- Generator: Sketch 3.5.1 (25234) - http://www.bohemiancoding.com/sketch -->
    <title>EthPay</title>
    <desc>Created with Sketch.</desc>
    <defs>
        <linearGradient x1="84.2916757%" y1="32.0176035%" x2="0%" y2="32.0176035%" id="linearGradient-1">
            <stop stop-color="#FBDA61" offset="0%"></stop>
            <stop stop-color="#1C86F7" offset="100%"></stop>
        </linearGradient>
    </defs>
    <g id="Welcome" stroke="none" stroke-width="1" fill="none" fill-rule="evenodd" sketch:type="MSPage">
        <g id="Bitpay" sketch:type="MSArtboardGroup" transform="translate(-463.000000, -106.000000)" fill="url(#linearGradient-1)">
            <path d="M505.2,113.1 L580.8,113.1 L570.44,138.58 L525.08,138.58 L519.48,151.6 L556.02,151.6 L546.08,176.24 L509.82,176.24 L504.36,189.26 L549.72,189.26 L538.94,216 L463.34,216 L505.2,113.1 Z M634.28,136.34 L624.62,160.14 L599.7,160.14 L577.02,216 L546.92,216 L588.92,113.1 C589.66667,111.233324 591.043323,109.600007 593.05,108.2 C595.056677,106.799993 597.133323,106.1 599.28,106.1 L621.82,106.1 L609.36,136.34 L634.28,136.34 Z M681.88,123.18 C687.946697,123.18 692.963314,123.739994 696.93,124.86 C700.896686,125.980006 704.046655,127.496657 706.38,129.41 C708.713345,131.323343 710.299996,133.539987 711.14,136.06 C711.980004,138.580013 712.260001,141.286652 711.98,144.18 C711.98,146.700013 711.560004,149.219987 710.72,151.74 L685.52,216 L655.7,216 L678.66,154.26 C679.40667,152.579992 679.453337,151.156672 678.8,149.99 C678.146663,148.823328 677.026675,148.24 675.44,148.24 C673.853325,148.24 672.243342,148.823328 670.61,149.99 C668.976658,151.156672 667.78667,152.579992 667.04,154.26 L641.98,216 L611.32,216 L653.18,113.1 C654.020004,110.953323 655.373324,109.250006 657.24,107.99 C659.106676,106.729994 661.113323,106.1 663.26,106.1 L685.94,106.1 L678.94,123.18 L681.88,123.18 Z M780.3,113.1 C784.22002,113.1 787.603319,113.77666 790.45,115.13 C793.296681,116.48334 795.536659,118.349988 797.17,120.73 C798.803341,123.110012 799.713332,125.886651 799.9,129.06 C800.086668,132.233349 799.433341,135.639982 797.94,139.28 L790.1,159.58 C787.859989,165.086694 784.080027,170.406641 778.76,175.54 C775.959986,178.24668 773.113348,180.393325 770.22,181.98 C767.326652,183.566675 764.293349,184.779996 761.12,185.62 C757.946651,186.460004 754.70335,186.996666 751.39,187.23 C748.07665,187.463335 744.600018,187.58 740.96,187.58 L734.94,187.58 L723.18,216 L692.38,216 L733.68,113.1 L780.3,113.1 Z M764.34,143.06 C765.08667,141.379992 765.110003,139.933339 764.41,138.72 C763.709996,137.506661 762.520008,136.9 760.84,136.9 L755.38,136.9 L745.3,161.54 L750.9,161.54 C752.580008,161.54 754.236658,160.933339 755.87,159.72 C757.503342,158.506661 758.69333,157.060008 759.44,155.38 L764.34,143.06 Z M849.18,216 L810.54,216 C806.526647,216 802.700018,215.416673 799.06,214.25 C795.419982,213.083327 792.503344,211.100014 790.31,208.3 C788.116656,205.499986 786.880001,201.76669 786.6,197.1 C786.319999,192.43331 787.579986,186.646701 790.38,179.74 C790.846669,178.339993 791.546662,176.426679 792.48,174 C793.22667,172.03999 794.206661,169.473349 795.42,166.3 C796.633339,163.126651 798.173324,159.300022 800.04,154.82 C803.586684,145.766621 808.813299,138.510027 815.72,133.05 C822.626701,127.589973 831.026617,124.86 840.92,124.86 L841.9,124.86 C847.126693,124.86 851.793313,125.979989 855.9,128.22 C856.833338,127.193328 857.929994,126.37667 859.19,125.77 C860.450006,125.16333 861.966658,124.86 863.74,124.86 L886.14,124.86 L849.18,216 Z M820.48,184.92 C818.986659,188.466684 818.54333,190.753328 819.15,191.78 C819.75667,192.806672 820.946658,193.32 822.72,193.32 C825.706682,193.32 827.993325,192.293344 829.58,190.24 L838.4,168.54 L843.02,156.36 C843.76667,154.679992 843.790004,153.256673 843.09,152.09 C842.389997,150.923327 841.200008,150.34 839.52,150.34 C837.186655,150.34 835.530005,150.783329 834.55,151.67 C833.569995,152.556671 832.566672,154.166655 831.54,156.5 L820.48,184.92 Z M972.1,124.86 L936.12,216 C933.973323,220.946691 931.640013,225.193316 929.12,228.74 C926.599987,232.286684 923.98668,235.249988 921.28,237.63 C918.57332,240.010012 915.86668,241.899993 913.16,243.3 C910.45332,244.700007 907.840013,245.726663 905.32,246.38 C899.439971,248.060008 893.373365,248.246673 887.12,246.94 L905.04,217.54 L893.42,217.54 C889.406647,217.54 885.580018,216.956672 881.94,215.79 C878.299982,214.623328 875.360011,212.640014 873.12,209.84 C870.879989,207.039986 869.620001,203.330023 869.34,198.71 C869.059999,194.089977 870.319986,188.326701 873.12,181.42 L894.82,124.86 L927.02,124.86 L903.22,186.6 C901.726659,190.146684 901.28333,192.433328 901.89,193.46 C902.49667,194.486672 903.686658,195 905.46,195 C907.513344,195 909.193327,194.556671 910.5,193.67 C911.806673,192.783329 912.926662,191.173345 913.86,188.84 L938.64,124.86 L972.1,124.86 Z" id="EthPay" sketch:type="MSShapeGroup"></path>
        </g>
    </g>
</svg>