<?xml version="1.0" encoding="UTF-8"?>
<svg width="100px" height="80px" viewBox="0 0 100 80" version="1.1" xmlns="http://www.w3.org/2000/svg" xmlns:xlink="http://www.w3.org/1999/xlink" xmlns:sketch="http://www.bohemiancoding.com/sketch/ns">
    <!-- Generator: Sketch 3.5.1 (25234) - http://www.bohemiancoding.com/sketch -->
    <title>refresh</title>
    <desc>Created with Sketch.</desc>
    <defs></defs>
    <g id="Page-1" stroke="none" stroke-width="1" fill="none" fill-rule="evenodd" sketch:type="MSPage">
        <g id="refresh" sketch:type="MSLayerGroup" fill="#FFFFFF">
            <g id="Page-1" sketch:type="MSShapeGroup">
                <g id="noun_15460_cc">
                    <path d="M78.398,12.521 L69.375,21.545 C64.474,16.646 57.707,13.615 50.229,13.615 C35.277,13.615 23.155,25.742 23.155,40.694 C23.155,40.697 23.155,40.69 23.155,40.694 L33.673,40.694 L16.873,57.488 L0.092,40.695 L10.391,40.695 C10.391,40.694 10.391,40.697 10.391,40.695 C10.391,18.694 28.228,0.852 50.229,0.852 C61.23,0.852 71.19,5.311 78.398,12.521 L78.398,12.521 L78.398,12.521 Z M99.908,39.306 L83.126,22.511 L66.327,39.306 L76.845,39.306 C76.845,39.309 76.845,39.3 76.845,39.306 C76.845,54.257 64.721,66.385 49.77,66.385 C42.295,66.385 35.525,63.355 30.625,58.455 L21.6,67.479 C28.81,74.69 38.769,79.149 49.77,79.149 C71.772,79.149 89.608,61.308 89.608,39.306 C89.608,39.304 89.608,39.307 89.608,39.306 L99.908,39.306 L99.908,39.306 L99.908,39.306 L99.908,39.306 Z" id="Shape"></path>
                </g>
            </g>
        </g>
    </g>
</svg>